<svg xmlns="http://www.w3.org/2000/svg" xmlns:xlink="http://www.w3.org/1999/xlink" viewBox="0 0 88 88">
  <defs>
    <polygon id="a" points="0 0 64 0 64 64 0 64"/>
  </defs>
  <g fill="none" fill-rule="evenodd" transform="translate(12 13)">
    <mask id="b" fill="white">
      <use xlink:href="#a"/>
    </mask>
    <path fill="#00B2E3" d="M59.4839184,35.377595 C59.2595918,36.4713141 58.924898,37.547277 58.4889796,38.5753469 C58.0607347,39.5856606 57.5302857,40.5604618 56.9126531,41.4727089 C56.3002449,42.3774626 55.5965714,43.228133 54.8213878,44.0015883 C54.0463673,44.7750435 53.1936327,45.4769851 52.2870204,46.0881907 C51.3727347,46.7044462 50.3957551,47.2335495 49.3830204,47.6610025 C48.3526531,48.0957859 47.274449,48.4298965 46.1781224,48.6537228 C45.956898,48.6986836 45.7345306,48.7394089 45.5110204,48.7757359 C46.4747755,46.213136 47.0021224,43.4376241 47.0029388,40.5392847 L47.0029388,12.3166393 L47.0032653,12.3166393 L59.9183673,4.92662316 L59.9183673,31.9333734 C59.9183673,33.0940449 59.714449,34.2529246 59.4839184,35.377595 Z M30.9727347,58.2262902 C29.8132245,58.7156456 28.6,59.091296 27.3663673,59.3431413 C26.098449,59.6019915 24.7921633,59.7334528 23.4837551,59.7334528 C22.1753469,59.7334528 20.8690612,59.6019915 19.6011429,59.3431413 C18.3676735,59.091296 17.1542857,58.7156456 15.9949388,58.2262902 C14.8555102,57.7455686 13.7564082,57.1500015 12.728,56.4566937 C11.7080816,55.7694132 10.748898,54.9796679 9.87706122,54.1097751 C9.00522449,53.2398823 8.21371429,52.2828373 7.52473469,51.2651931 C6.82987755,50.2389151 6.23314286,49.1422637 5.75134694,48.0057015 C5.26089796,46.8487767 4.88440816,45.6380945 4.632,44.4073754 C4.37240816,43.1422841 4.24097959,41.8387481 4.24097959,40.5332573 L4.24097959,14.7780776 L21.3877551,4.92548285 L21.3877551,31.9333734 C21.3877551,42.1955019 28.6065306,50.7650862 38.2827755,52.8057504 C37.9051429,53.258453 37.5072653,53.694051 37.0906122,54.1097751 C36.2187755,54.9796679 35.2595918,55.7694132 34.2396735,56.4566937 C33.211102,57.1500015 32.112,57.7455686 30.9727347,58.2262902 Z M21.3456327,0 L0,12.3159877 L0,40.5339089 C0.000326530612,53.4940083 10.4946939,64 23.4837551,64 C27.7786122,64 31.8045714,62.8512202 35.2698776,60.8450911 L35.2698776,60.845254 L52.6171429,50.8520755 C59.4465306,47.2900763 64,40.1548377 64,31.9333734 L64,2.41501135 L59.8315102,0 L42.7755102,9.85568984 L42.7755102,40.5332573 C42.7755102,41.8387481 42.5952653,43.1422841 42.3356735,44.4073754 C42.0832653,45.6380945 41.7066122,46.8487767 41.2161633,48.0057015 C41.0893061,48.3047883 40.9542857,48.6014315 40.8117551,48.8948167 C40.2943673,48.8373125 39.780898,48.7571651 39.274449,48.6537228 C38.1781224,48.4298965 37.0997551,48.0957859 36.0693878,47.6610025 C35.0568163,47.2335495 34.0796735,46.7044462 33.165551,46.0881907 C32.2589388,45.4769851 31.4060408,44.7750435 30.6310204,44.0015883 C29.856,43.228133 29.1523265,42.3774626 28.5397551,41.4727089 C27.9221224,40.5604618 27.3918367,39.5856606 26.9635918,38.5753469 C26.5276735,37.547277 26.1929796,36.4713141 25.9686531,35.377595 C25.7379592,34.2529246 25.6210612,33.0940449 25.6210612,31.9333734 L25.6218776,31.9333734 L25.6218776,2.46404463 L21.3456327,0 Z" mask="url(#b)"/>
  </g>
</svg>
